<svg width="1247" height="372" viewBox="0 0 1247 372" fill="none" xmlns="http://www.w3.org/2000/svg">
<g filter="url(#filter0_f_6_36)">
<path fill-rule="evenodd" clip-rule="evenodd" d="M105 297.5C105 303.299 109.701 308 115.5 308C121.299 308 126 303.299 126 297.5V240.871H196V325.5C196 331.299 200.701 336 206.5 336C212.299 336 217 331.299 217 325.5V240.871H261.5C267.299 240.871 272 236.17 272 230.371C272 224.572 267.299 219.871 261.5 219.871H217V150H289.915C295.714 150 300.415 145.299 300.415 139.5C300.415 133.701 295.714 129 289.915 129H217V78.5C217 72.701 212.299 68 206.5 68C200.701 68 196 72.701 196 78.5V129H126V50.5C126 44.701 121.299 40 115.5 40C109.701 40 105 44.701 105 50.5V129H42.9148C37.1158 129 32.4148 133.701 32.4148 139.5C32.4148 145.299 37.1158 150 42.9148 150H105V219.871H14.5C8.70102 219.871 4 224.572 4 230.371C4 236.17 8.70102 240.871 14.5 240.871H105V297.5ZM126 219.871H196V150H126V219.871Z" fill="#242832"/>
</g>
<g filter="url(#filter1_df_6_36)">
<path fill-rule="evenodd" clip-rule="evenodd" d="M135 332.5C135 333.881 136.119 335 137.5 335C138.881 335 140 333.881 140 332.5V251.871H226V360.5C226 361.881 227.119 363 228.5 363C229.881 363 231 361.881 231 360.5V251.871H283.5C284.881 251.871 286 250.752 286 249.371C286 247.991 284.881 246.871 283.5 246.871H231V161H311.915C313.296 161 314.415 159.881 314.415 158.5C314.415 157.119 313.296 156 311.915 156H231V97.5C231 96.1193 229.881 95 228.5 95C227.119 95 226 96.1193 226 97.5V156H140V69.5C140 68.1193 138.881 67 137.5 67C136.119 67 135 68.1193 135 69.5V156H48.9148C47.5341 156 46.4148 157.119 46.4148 158.5C46.4148 159.881 47.5341 161 48.9148 161H135V246.871H20.5C19.1193 246.871 18 247.991 18 249.371C18 250.752 19.1193 251.871 20.5 251.871H135V332.5ZM140 246.871H226V161H140V246.871Z" fill="#169DE0"/>
</g>
<path d="M455.557 290V167.605L454.436 175.2L412.974 290H404.507L362.671 175.2L361.675 167.605V290H345.613V111.45H353.955L408.118 257.876L408.616 264.475L409.114 257.876L463.152 111.45H471.619V290H455.557ZM584.924 290L576.458 277.3C572.971 281.865 568.613 285.559 563.384 288.381C558.154 291.121 552.427 292.49 546.201 292.49H542.341C537.195 292.49 532.339 291.536 527.773 289.626C523.208 287.634 519.224 284.937 515.82 281.533C512.417 278.13 509.719 274.146 507.727 269.58C505.818 265.015 504.863 260.159 504.863 255.012V253.767C504.863 248.621 505.818 243.765 507.727 239.199C509.719 234.634 512.417 230.649 515.82 227.246C519.224 223.843 523.208 221.187 527.773 219.277C532.339 217.285 537.195 216.289 542.341 216.289H574.714V196.616C574.714 193.545 574.133 190.681 572.971 188.025C571.809 185.286 570.232 182.92 568.24 180.928C566.248 178.936 563.882 177.358 561.143 176.196C558.486 175.034 555.623 174.453 552.551 174.453H543.586C540.515 174.453 537.61 175.034 534.871 176.196C532.214 177.358 529.89 178.936 527.898 180.928C525.906 182.92 524.329 185.286 523.167 188.025C522.004 190.681 521.423 193.545 521.423 196.616V201.223L506.108 198.733V197.488C506.108 192.341 507.063 187.485 508.972 182.92C510.964 178.354 513.662 174.37 517.065 170.967C520.469 167.563 524.453 164.907 529.019 162.998C533.584 161.006 538.44 160.01 543.586 160.01H552.551C557.698 160.01 562.554 161.006 567.119 162.998C571.685 164.907 575.669 167.563 579.072 170.967C582.476 174.37 585.132 178.354 587.041 182.92C589.033 187.485 590.029 192.341 590.029 197.488V290H584.924ZM574.714 228.242H542.341C539.27 228.242 536.365 228.823 533.625 229.985C530.969 231.147 528.645 232.766 526.653 234.841C524.661 236.833 523.083 239.199 521.921 241.938C520.759 244.595 520.178 247.458 520.178 250.53V255.884C520.178 258.955 520.759 261.86 521.921 264.6C523.083 267.256 524.661 269.58 526.653 271.572C528.645 273.564 530.969 275.142 533.625 276.304C536.365 277.466 539.27 278.047 542.341 278.047H552.551C555.623 278.047 558.486 277.466 561.143 276.304C563.882 275.142 566.248 273.564 568.24 271.572C570.232 269.58 571.809 267.256 572.971 264.6C574.133 261.86 574.714 258.955 574.714 255.884V228.242ZM667.102 290C662.454 290 658.054 289.128 653.904 287.385C649.836 285.642 646.267 283.235 643.196 280.164C640.208 277.092 637.8 273.523 635.974 269.456C634.231 265.388 633.359 261.03 633.359 256.382V177.068H610.449V162.5H633.359V131.87L648.674 129.38V162.5H681.047V177.068H648.674V257.129C648.674 259.702 649.131 262.109 650.044 264.351C651.04 266.509 652.368 268.418 654.028 270.078C655.688 271.738 657.639 273.066 659.88 274.062C662.122 274.976 664.529 275.432 667.102 275.432H681.047V290H667.102ZM746.79 177.068C743.718 177.068 740.813 177.649 738.074 178.811C735.417 179.973 733.093 181.55 731.101 183.542C729.109 185.535 727.532 187.9 726.37 190.64C725.208 193.296 724.626 196.16 724.626 199.231V290H709.312V162.5H714.417L722.759 175.449C726.245 170.718 730.603 166.982 735.833 164.243C741.145 161.421 746.914 160.01 753.14 160.01H762.104V177.068H746.79ZM786.384 131.87V111.45H804.189V131.87H786.384ZM787.629 290V162.5H802.944V290H787.629ZM904.795 290L877.527 241.067L850.259 290H833.699L869.434 226.25L833.699 162.5H850.259L877.527 211.433L904.795 162.5H921.355L885.745 226.25L921.355 290H904.795ZM1049.85 248.662C1049.85 254.722 1048.69 260.408 1046.36 265.72C1044.12 271.033 1041.01 275.681 1037.03 279.666C1033.04 283.65 1028.39 286.804 1023.08 289.128C1017.77 291.37 1012.08 292.49 1006.02 292.49H993.323C987.263 292.49 981.536 291.37 976.14 289.128C970.828 286.804 966.179 283.65 962.195 279.666C958.21 275.681 955.056 271.033 952.732 265.72C950.491 260.408 949.37 254.722 949.37 248.662V111.45H965.432V248.662C965.432 252.646 966.179 256.382 967.673 259.868C969.167 263.271 971.201 266.301 973.774 268.958C976.431 271.531 979.46 273.564 982.864 275.059C986.35 276.553 990.085 277.3 994.07 277.3H1005.28C1009.26 277.3 1012.95 276.553 1016.36 275.059C1019.84 273.564 1022.87 271.531 1025.45 268.958C1028.02 266.301 1030.05 263.271 1031.55 259.868C1033.04 256.382 1033.79 252.646 1033.79 248.662V111.45H1049.85V248.662ZM1088.2 290V111.45H1104.26V290H1088.2Z" fill="#169DE0"/>
<defs>
<filter id="filter0_f_6_36" x="0" y="36" width="304.415" height="304" filterUnits="userSpaceOnUse" color-interpolation-filters="sRGB">
<feFlood flood-opacity="0" result="BackgroundImageFix"/>
<feBlend mode="normal" in="SourceGraphic" in2="BackgroundImageFix" result="shape"/>
<feGaussianBlur stdDeviation="2" result="effect1_foregroundBlur_6_36"/>
</filter>
<filter id="filter1_df_6_36" x="17" y="66" width="316.415" height="316" filterUnits="userSpaceOnUse" color-interpolation-filters="sRGB">
<feFlood flood-opacity="0" result="BackgroundImageFix"/>
<feColorMatrix in="SourceAlpha" type="matrix" values="0 0 0 0 0 0 0 0 0 0 0 0 0 0 0 0 0 0 127 0" result="hardAlpha"/>
<feOffset dx="12" dy="12"/>
<feGaussianBlur stdDeviation="3.5"/>
<feComposite in2="hardAlpha" operator="out"/>
<feColorMatrix type="matrix" values="0 0 0 0 0 0 0 0 0 0 0 0 0 0 0 0 0 0 1 0"/>
<feBlend mode="normal" in2="BackgroundImageFix" result="effect1_dropShadow_6_36"/>
<feBlend mode="normal" in="SourceGraphic" in2="effect1_dropShadow_6_36" result="shape"/>
<feGaussianBlur stdDeviation="0.5" result="effect2_foregroundBlur_6_36"/>
</filter>
</defs>
</svg>
