<svg width="336" height="345" viewBox="0 0 336 345" fill="none" xmlns="http://www.w3.org/2000/svg">
<circle cx="168" cy="168" r="168" fill="white"/>
<path fill-rule="evenodd" clip-rule="evenodd" d="M110 277.5C110 284.404 115.596 290 122.5 290C129.404 290 135 284.404 135 277.5V226.871H201V305.5C201 312.404 206.596 318 213.5 318C220.404 318 226 312.404 226 305.5V226.871H268.5C275.404 226.871 281 221.275 281 214.371C281 207.468 275.404 201.871 268.5 201.871H226V136H296.915C303.818 136 309.415 130.404 309.415 123.5C309.415 116.596 303.818 111 296.915 111H226V62.5C226 55.5964 220.404 50 213.5 50C206.596 50 201 55.5964 201 62.5V111H135V34.5C135 27.5964 129.404 22 122.5 22C115.596 22 110 27.5964 110 34.5V111H53.9148C47.0112 111 41.4148 116.596 41.4148 123.5C41.4148 130.404 47.0112 136 53.9148 136H110V201.871H25.5C18.5964 201.871 13 207.468 13 214.371C13 221.275 18.5964 226.871 25.5 226.871H110V277.5ZM201 201.871V136H135V201.871H201Z" fill="#169DE0"/>
</svg>
